<mxfile host="Electron" agent="Mozilla/5.0 (Windows NT 10.0; Win64; x64) AppleWebKit/537.36 (KHTML, like Gecko) draw.io/26.0.15 Chrome/132.0.6834.196 Electron/34.2.0 Safari/537.36" version="26.0.15">
  <diagram name="Seite-1" id="rx-hYl-YKBX61hUsMy72">
    <mxGraphModel dx="1420" dy="952" grid="1" gridSize="10" guides="1" tooltips="1" connect="1" arrows="1" fold="1" page="1" pageScale="1" pageWidth="1169" pageHeight="827" math="0" shadow="0">
      <root>
        <mxCell id="0" />
        <mxCell id="1" value="Basic structure" parent="0" />
        <mxCell id="AjcsgLgm9lEstIIJ2gpz-9" value="DW Structure" parent="0" />
        <mxCell id="AjcsgLgm9lEstIIJ2gpz-10" value="" style="rounded=0;whiteSpace=wrap;html=1;fillColor=none;strokeColor=#FFCC99;strokeWidth=3;movable=0;resizable=0;rotatable=0;deletable=0;editable=0;locked=1;connectable=0;" parent="AjcsgLgm9lEstIIJ2gpz-9" vertex="1">
          <mxGeometry x="320" y="240" width="160" height="480" as="geometry" />
        </mxCell>
        <mxCell id="AjcsgLgm9lEstIIJ2gpz-14" value="&lt;b&gt;&lt;font style=&quot;font-size: 17px;&quot;&gt;Bronze Layer&lt;/font&gt;&lt;/b&gt;" style="rounded=0;whiteSpace=wrap;html=1;fillColor=#FFCC99;strokeColor=#FFCC99;strokeWidth=2;movable=0;resizable=0;rotatable=0;deletable=0;editable=0;locked=1;connectable=0;" parent="AjcsgLgm9lEstIIJ2gpz-9" vertex="1">
          <mxGeometry x="320" y="200" width="160" height="30" as="geometry" />
        </mxCell>
        <mxCell id="AjcsgLgm9lEstIIJ2gpz-15" value="" style="rounded=0;whiteSpace=wrap;html=1;fillColor=none;strokeColor=#E6E6E6;strokeWidth=3;movable=0;resizable=0;rotatable=0;deletable=0;editable=0;locked=1;connectable=0;" parent="AjcsgLgm9lEstIIJ2gpz-9" vertex="1">
          <mxGeometry x="520" y="240" width="160" height="480" as="geometry" />
        </mxCell>
        <mxCell id="AjcsgLgm9lEstIIJ2gpz-16" value="&lt;b&gt;&lt;font style=&quot;font-size: 17px;&quot;&gt;Silver Layer&lt;/font&gt;&lt;/b&gt;" style="rounded=0;whiteSpace=wrap;html=1;fillColor=#E6E6E6;strokeColor=#E6E6E6;strokeWidth=2;fontColor=#333333;movable=0;resizable=0;rotatable=0;deletable=0;editable=0;locked=1;connectable=0;" parent="AjcsgLgm9lEstIIJ2gpz-9" vertex="1">
          <mxGeometry x="520" y="200" width="160" height="30" as="geometry" />
        </mxCell>
        <mxCell id="AjcsgLgm9lEstIIJ2gpz-17" value="" style="rounded=0;whiteSpace=wrap;html=1;fillColor=none;strokeColor=#FFF2CC;strokeWidth=3;movable=0;resizable=0;rotatable=0;deletable=0;editable=0;locked=1;connectable=0;" parent="AjcsgLgm9lEstIIJ2gpz-9" vertex="1">
          <mxGeometry x="720" y="240" width="160" height="480" as="geometry" />
        </mxCell>
        <mxCell id="AjcsgLgm9lEstIIJ2gpz-18" value="&lt;b&gt;&lt;font style=&quot;font-size: 17px;&quot;&gt;Gold Layer&lt;/font&gt;&lt;/b&gt;" style="rounded=0;whiteSpace=wrap;html=1;fillColor=#fff2cc;strokeColor=#FFF2CC;strokeWidth=2;movable=1;resizable=1;rotatable=1;deletable=1;editable=1;locked=0;connectable=1;" parent="AjcsgLgm9lEstIIJ2gpz-9" vertex="1">
          <mxGeometry x="720" y="200" width="160" height="30" as="geometry" />
        </mxCell>
        <mxCell id="AjcsgLgm9lEstIIJ2gpz-76" value="" style="sketch=0;pointerEvents=1;shadow=0;dashed=0;html=1;strokeColor=none;labelPosition=center;verticalLabelPosition=bottom;verticalAlign=top;align=center;fillColor=#66B2FF;shape=mxgraph.mscae.oms.log_search;direction=north;movable=0;resizable=0;rotatable=0;deletable=0;editable=0;locked=1;connectable=0;" parent="AjcsgLgm9lEstIIJ2gpz-9" vertex="1">
          <mxGeometry x="1003.28" y="370" width="70" height="71" as="geometry" />
        </mxCell>
        <mxCell id="AjcsgLgm9lEstIIJ2gpz-78" value="" style="outlineConnect=0;dashed=0;verticalLabelPosition=bottom;verticalAlign=top;align=center;html=1;shape=mxgraph.aws3.machine_learning;fillColor=#2E73B8;gradientColor=none;movable=0;resizable=0;rotatable=0;deletable=0;editable=0;locked=1;connectable=0;" parent="AjcsgLgm9lEstIIJ2gpz-9" vertex="1">
          <mxGeometry x="996.75" y="550" width="76.5" height="93" as="geometry" />
        </mxCell>
        <mxCell id="AjcsgLgm9lEstIIJ2gpz-81" value="" style="shape=image;verticalLabelPosition=bottom;labelBackgroundColor=default;verticalAlign=top;aspect=fixed;imageAspect=0;image=data:image/png,iVBORw0KGgoAAAANSUhEUgAAAj0AAAIqCAYAAADPQvsiAAAABmJLR0QA/wD/AP+gvaeTAAAACXBIWXMAAAsTAAALEwEAmpwYAAAAB3RJTUUH4AgECQwvbTckbgAAIABJREFUeNrs3XmUXVdh7/nv3ufcueYqSaXBsjwxOmADCZAYMJZtbEMCwQZPkBBCEkLyeM1byep+nbx0kveSft290v3I9AiDAYNtMGATBs+DPIDB2BjwiCdsSSWVpJruPJxh9x/3SpaNhpJUVXf6fdaqRQY07XvPPt+zz2Scc4iIiIj0OqshEBEREUWPiIiIiKJHRERERNEjIiIiougRERERUfSIiIiIKHpEREREFD0iIiIiih4RERFR9IiIiIgoekRERER6ga8hOLzZf3yNBqGPjLl5vpn4La5LvIcJN6MBWRpfAS4G8kf465JAAPwV8EkN45H5//7wUg2CiKJH5OBiDGlXI00Nh8Ggl/IugWzrP4eP4tdm9vv1IiJHTae3RF5iwYzwjvAWzg5uZ86MKXo6pUVFRBQ9IkvPYRh2eXKUifA0ICIiih6R3jRvRjkvvImzgjvJm2ENiIiIokekNxkcDo8YD3R6S0RE0SMiIiKi6BERERFR9IiIiIgoekREREQUPSIiIiKKHhERERFFj4iIiCh6RERERBQ9IiIiIooeEREREUWPiIiIiKJHRERERNEjIiIiougRERERUfSIiIiIKHpERERE0SMiIiKi6BERERFR9IiIiIgoekREREQUPSIiIiKKHhERERFFj4iIiIiiR0RERETRIyIiIooeEREREUWPiIiIiKJHRERERNEjIiIiougRERERUfSIiIiIKHpEREREFD0iIiIiih4RERFR9IiIiIgoekREREQUPSIiIiKKHhERERFFj4iIiIiiR0RERETRIyIiIqLoEZFeEmsIRORY+RoCka48WNnURQct24DcMf4eq4BBYE0X/HsdMA/M6asqougRkWOTAb7dioBuWAEJgXXH+Ht8BLgQ8Dr832pa/97/AfxzK4BERNEjXSgNnNz6z+XY2c4AWzXMh2WB41rR0y9GWz/dIAQmOuEv8olPX4NnDeVayEKxhjEdNU7H0VzBM8sUh95+c0rU75PG1f/bRzRzKnrkCG0ArgGOB+pLvBOPW7/3xzXM0gPCTvrLxHFMFMf4XkedEf048KFWnCxHlAwAXwb+DMjrKymKHjlSCWB1a4VhOVYZRjXEIkvPmOZySocZYflXxEbQDTvykiNskUUfMC7zEWygIRbpGyuxvUcaZlH0iIiIiKJHRERERNEjIiIiougRERERUfSIiIiIKHpEREREFD0iIiIiih4RERERRY+ISDsYIEtHPgRZpL/pNRQiB91zxZRMlppJY11M3DnHCCFwD5CjO96yXgV+jWN75cAzwFNAqguCJwQeR29YF1H0iHSLGllOi37Gc3YTc2aMJI1OioiLumgoq8B3gQuO4ff4AvDfgEyX/JtDRY+IokekaxTMIK8Pt/Cw92p+nngZx8XbO2m1p9plw3ms70Cqd+m/u+2MNVhrVWAi6JoekYPyiKiYSU6Pfsqrosepds0ig+YqaQWPMdQbEeVqgLW6xEhEE4nIIZTMAK8N72FdvJN5M4rtiktoRFrh7hmCMKJcbWCNokdE0SNyqJ0GEWWzjl+P7uOVsVZ7pHvsW+WpBSR8TfUiih6RRaiYLKeGP2DMzZM3w1rtke4IdmsIo5hKLcBolUcE0IXMIos4Mogp2nWcG9zGghlmh1lHat91tSKdxxhDrRFSrDRIeDq2FXlhPheRw6qR5mXRT8i5CmWTw+heGOnkid1CHDuq9VCrPCL70UqPyKKODmIKdpJ3B9+mYrJMabVHOtTea3kK5bpWeUR+aS4XkUVpkOTE6AlSrk7NpLTaI505qRtwDmqNCC3yiCh6RI7uCBrHgl3N+4OvcVL8LLWOfyOC9N131BjqQcRCsYavO7ZEFD0ixyLEZ2O0Fd+FhCahAZEOi57mKk8jjPS2UxFFj8gx7lRwzNsxPti4mo3xVhokNSjSIcFjCIKI+WINX9fyiCh6RJZChMcat5ukC4ixOAxOx9XSAWIHYaTnSIkcjO7eEjnSI2oceTPEpcFXAcfnkx9izoztu6xZFzjLin8nDYRhxFyxiqd3bIkoekSWksMw4EpYYj7SuIKABFckf5eyyRK0Tnnpyc2y/F9ERxQ75go1XPN/1ZqjiKJHZOnFWGIsGVclQ5U/qX+KislyRfJDBCQomVzrv6H4kaWxN2hi54idY65Qxblm7Oz//xcRRY/IssVPc2MKGXIFPlH/JHNmjCuSvwvAghnBI8Ij0mDJ0cVOq2bi2OEczBaqRLGuJBNR9Ii0yf67oFE3z3+u/99MmfV8MfUBjHPMmjESBCQIdeGzLDJ2DAYI4+Zq4VyhRhjGGKNVHZGjobu3RJYhfhyGOilWuT38dfW/cmnwVcaZY9gVKDJIiK8LnuWQsWOtJYpiwihmvlBj12yZKIr1lGURRY9I5wZQwQyxPt7B31X/ivcF17E23smwy5O3w4RG8SMvjh2vFTtBELFQqjE9VyKMYqzuyhJR9Ih0/I4MR4xlxkxwfPw8f1v7S94TfIsToucYigvM2TGt/PT9d4R9sdMIQxZKNXbOlmgEMZ7VNC2yVHRNj8gKxk+Exx67jpfFT/GG6j38wH87d/EW8maEKbuOobhAgkDX/PTLd8KAtZYgjAgaIaVqg1I1wPcsCb07S0TRI9LtLDEBCfbY4zk1fpQ3VW/j3sR5POC9np12LTvMWkbcguKnT2KnHoRUagHFSoOEYkdE0SPSq/FTJ0XVnsjrwoc4I7iJLYl38bh9BU95J1MxWbKuovDpsdjxraURRtQaDWr1iEKlge8ZkoodkRWYd0Wk7fFTNRn22BN5U/hD/rj+D/x28O84oGIyutanVz5nY3AOCpUGhXKD3XNlKrWApG+xuiVLZEVopUekg+KnbHIUzSBvCbdgcHw5eTlVMmSoasWni5lW1ORLdYrlOp5nSSY0/Yqs/DwrIh0XP3vMWs4I7+YD9auJsdRIa8Wni4PHGJgvVilVGiQSnm4/F1H0iMiLw2eSM6K7uTy4mtD41EkpfLo1eAq15l1Zum5HpK20virS0eGzhreG9wKWLycvxThHgkCD0xXBQyt4qpRbt6GLiKJHRA4RPjNmgjPCe4mBq5OXYl2sl5d2RfAY5gs1ytUAT8Ej0iFzqoh09g4Ux7wZ5S3h97m08VWqJkOkTbfDo8cwX6hTril4RDqJVnpEusSCGeaM8PsAXJ28hJwr6xqfDuN5FgcsFKrN4NEFyyKKHhE5OkUzwG+E9+EwfCl5GQbHiMvrdvZ2x04rbhaKNaLIUW0oeEQUPSJyTByGssnypvCHDLkCs2aMq5KXkaLOoCsqflaYtQZrDPPFKmHkqDdCnEO3pIsoekRkKcRYaibNa6JHqJNitdvDtJnkS6nLGXRFBlyJWNf8LCtjDJ7XvFA5CGMaQYRzDmubt6iLiKJHRJaIw1A0Axgcr44eY5N5no21bTxrT+Da5EWsivdo1WeZWGvIl+o0gpgwioicwzNm31OXRUTRIyLLFj9DWCJOjp7mxOhZQuNzfeLdTMQzCp9l4BlDGMVUGwEJz+IpdkQUPSKycukTYymaQRIEnBfcjBdH/HvyNxlyBQ3PUgaPNcwXa9QbEQndii7SdbTVivQIgyMgQdIFrGIPDRIalCUf5OYqT+xijYWIokdE2h0+eTPEa6OHuTj4OvNmVIOyRDxrWCjWqDZCPKupU0TRIyJt5zCkXJ0Rt4Al0nU9S5iUUeRweh6kiKJHRDpH3gzxq+ED/Hbj35kzYxqQY+R7hnypRrWuhw6KKHpEpKM4DB4xwxTIuKqe23OM4hii2OmlHyKKHhHpRHkzxBnh93hXeAMzZlzv6TpKvmcpVOrNt6VrlUdE0SMinSnCY8gVGGWBUE+oOGIGiOKYKHLo0igRRY+IdLC8GeZt4Z2cHd7OHrtKqz1HyPcspUqDUrWhVR4RRY+IdLLms3syjMfzTMa7CLr32T2ZFR87A0EUE0ZOr5gQ6ZUDGQ2BSG9bMMO8JbiV3WaCa5MXsT7e0Y7b2LcBu4GZI/x1CSBs/fqVnRw9y0KxTrHSIOHr+FBE0SMiHc8S0zBDrHM7WeVmKJkBBl2JeGXD5y+BvwOO9FHGBnBAcUXHzDafvBxEsU5riSh6RKSb5M0wbw6/R8bV+HTy9ymYAYZWNnzmWz+dH4nWgHPM5WtU6gG+3rEl0kMHgSLSBxt6zG6zltOiB/jDxmdJuJCCGcSid0gdKHhmC1UFj4iiR0S6lUfEbrOO06IHW+ETUDCDuqNrv+BxzjGbr1GphgoeEUWPiPRG+LRWfAgpmYG+Dx9rDM7BXL5KpRbg68JlEUWPiPRK+KzntOhB/qD+OXwXUja5vg0faw3OwGy+SqUWKnhEFD0i0mvhs8es5fToQf6g8Tk8F1Mx2b4Ln70rPLMLFapa4RFR9IhIr278MXvMJKdHD/GRxhVY56iS6ZvwMab5L53LV6nWtcIjougReTFH80Fx3fZ7yyHDZzWvi37MhxtXAFAn1fPhY4wBA3OFKtWG7tJqk7C13S+nGhBpqGUvPadncV4BrAMafTwGldY4ZJdrPwSsB15PG1450GEHIg3gEaC0UuEzYyZ4XfQTXOMLfCP521TI4vXwviKOYxZKdar1EM+uePBsBE7u8/mkBBzH8r/G9TjgN4A56N53sBzjvOqA54Dt2pUrehbr48BHgOk+HgMHJIHRZfwz3gZcR3+/zzoN7AIuAx5euZnRMWfGeEP0Y67lIkL8no0eY5q3plfqIX57nrb8PppPp97dx9/zGBhfgT/nTcBnaK729OO8svc1Ln8P/E/tyhU9izXe+vIcp6FYVrnWT78bZPlW1A4ZPgtmhIuDr/H1xHupkunJhxfuXeXx2/d6iVEgpflkRWTbsS11oNUagiadyBbpPDXadH1TjOFXwkcI8Inwem5gjWmu9NTqbb18TNeYSDvmFFH0iMhLlU2ODzauIUeZuMemiDh2zBdqzddNiIiiR0TkxOhZQnxcD10GYQCDoR7qJkERRY+ICOAwhMbnQ/UrSVPvmfCJHcwVqxi0yiOi6BERaTE41rppHPTME3sMjiDUW+VFFD0iIvuJsVhiPlz/Ih5xT6z2zBZ0LaeIokdE5AAMjlHmSRB0/b/FOYgipw9VRNEjIvLLYiwpV+fD9S90/e3rs4UqDkWPiKJHROQgDI4cFQZdsWtPccWxwzklj4goekTkECI8Bl2RDze+SI10901wtnnHVhQ53bMlInoNhYgsZqIIGWeWeTt60DewOwy+C/Fd2DGrQmHo0BKPiCh6RGRx4YDPuJvlD+uf5QrzIVLUDzyZuJC5xBiziXEycXXZ4sfgCI1PYBIHDTBovm4ivzBPFMUYo3UeEVH0iMgiNEgyUC7xZzP/T/MFVgcwGObZMn4WW8bOpOpl2JNcxUBYWrL4MTgCk6Ds51hd382axi4Ckzjof98zjkcZpGK8Q8aRiCh6RET21gZEEO0xVP2Dv7C6nMzx2sJPOXPPLdy+6nzuH/415pOj7EmuYjAsHnX87F3ZKfqDrK7vZl1tB29euI8zZ2+j7A8f9NdlXY2Pjf858944GVfX5ygiih4ROQwHrgqHu2vdEhOYBNOZjbwh/wCbd9/ATWvezWODr2IqtZ65xBi+O/L3XgUmwapgD8cXn+e1hZ9y9u7vkE+tYTq9AesO/oTlwCU5NfgFBZsjxmq1R0QUPSJyCAaIIZ49fPTsix8XU7cpprPH8xsL3+O83d/kO5MX8WTuZWSi6hH/FSpelleXHuW8XddTTK5mOrsJ6+JDBg9A3ST5WOk6Hky+jAU7SNo19HmKKHpERA7CgassPnheGj9Vm6Gc2cTbZ+/kHXtuPqrTW9bF1L0U05kTFhU7L/SaY84O8ab6Y9ydfi0RurZHRNEjIp24Xbb/EcimGT1HsspzsGgpeznKXu6Y/jqLjZ39RXh8pPwd7kqfRmA8kkdxek1EeoceTijSeQIg6oTZwZU7Ir+Oyawd4qzag6RdoxOeH2SBhL7issKGNQQvHFHK4f0rsAWo9PEY1IATgP8VGFmmP+Ne4F+AVB+Ps9f6nj3X7r+Fy0M81/3RA/CB8q3clH4zhhi/vT0ZAw+3vutzfR72rwc2LfOfMwX8DKj36UG+3zqAekC7cUXPkbir9dPvTgH+aJmixwGPAl/RMLd/VnALreDpgd2Ew5C3Od5V+x5fzZ7FcFxu97U9XwW+1uffshD4VGs+WU7fBz4GzPT5/i5GFD1yxCyQXKbf2yzj7y1HMCPEeXB7g6dHHmRscFxWvhXrYq4aOJexqNDuHZB2QitzCrdBc1Vpb2iJdmIiIvsFz2xvBQ+8sNpzceUOLi/dyow3rBeQdkKLrsyBvfZzougRkf0kejd49oqxFG2W91fv4PLyreyyI7qFXUTRIyL9FjxuofdOaR1IhKVs0ry/fAcfqNzCtB3DKnxE+oau6RHpVw5I7nfRsunt4NkrwMOYJBdX7sRh+FLuHayLZol1wktE0SMiPWr/4KE/gmfvP7NhfIyDS8p37Auf9dEeYi1+iyh6RKTHJPpvheel4VM3CcBxSfk2AL6cewfrohmt+IgoekREwdNr4eOom+ZTEi6p7A2fc3WqS0TRIyI9FTw9fJfWUYWPM1xSuR2D48u5c5mM5jrhlRUiougRkaPd2uM+uUvryMMnAQ4uKd8OOK7OncvqaEH3dYkoekSk63gKnsWEjwMuLd+OBa7OnsNYXNCzfEQUPSLSTcHj8gqexYRPw/g4DJeUb8cAV2c3MxKX9CwfEUWPiHRF8BT2e3mogucw4QOh8SibdPOuLgfX5DYzFJfx9LosEUWPiHTo3ts2V3jiuWb8yOKFeBRslksrt2JNzNXZsxmIqySItOYjougRkY4Lnr23pWsrPyoxlgU7wCXl2zDOcU3ubLKuTsKFCh8RRY+IdETwmNYKz7y28GPlMMzZIS6t3IrBcXXubDJA0gW6pV1E0SMi7Q6eeO9Fy9q6l8weO8pl5Wb4XJM7GwekFD4iih4RUfD03vA6dnljXFq+FYBrsueAMaRcQ+EjougRkRUPnoKCZ7nDZ9ob59LyLc1TXdlzwKDwEVH0iMiKBU/rLi03qy16uVkc094qLinfCg6uGjgHUPiIKHpEZPm51kXLCp4VDJ+4GT6VW3HGcE3ubMCR0l1dIooeEVkmBoggngESGo52hM+l5VtwGG7IvJkQD6sHGIooekRkGThwlY7aii8DzgUWVujPWwV8BtjSvvCZ4LLyjWxJn85uO0rO1bTaI6LoEZElZZrR00GntRLABcDlK/znPtiu6GmGj2PejvK22k+4OfNrNEhotUekg1kNgUgXcuCKHXXYEgJBP34UDZPg8vLNGNd8YamIKHpEZKnsvUV9XkPRGR+HY9Yb4Z21+xiMq8S6i0s68CBJFD0iXTuBxXn0EtEOEmG5qLKFhvUJtdojSx0snoHEMfxktKvfS1vnIiRpUCOtc/XSMYcqLq9Dlk4za4d4f/kOrs++lQAfo8NrOdbY8Q0kDWZPA6oR2KNcRbRafVT0HMlkZsbYFP0cZzKH/O/FWBbMiAZMllU8r+DpVOfVfshV2XOxxPhEGhA5ttiZCZqxU4ygFh/9dq/+VvQciWsTF7He30GD5CGDZ8CVuTi4loAEeTOsIz1Zeh64UmsS08Fbh+2rDEWT5XfLN3Bt7ixCrfbIkYaJB6QtZjZohk4lgloECQspbfCKnhXyrHciT/CKQ05gDkOKOnNmlAk3w/uCr1InR8EM6bSYLJl4tvU/aP7rSJaYt9Z/xucH3kXSBYoeWewXB5IW5gPMVA0arhk8Sdv8EUXPSsq4KhmqizrS+5H/BrJU2GnXsiGe4r2Na6iaUUpmQPEjx8ZrPYxQqzydG6VY6sby0dI3uTJ3HhFGH5UcnAFSFvIhZnsNglbsJCykrU5LLVNfypJ9fx3DLo/nIn7ivZa7/TP4h/R/5pbE2ayKt5J2NWINuRzl5BjPKHi640gy4rTGU5RMWh+WHDp26jHm6QpmVx2KIQRx8/9uUfAoerppUGNG3AIOw6Peq7jbfyv/Z/qv2eK/jVXxdpJ6I7McxZbqapoIu0HUepbAx4tf12DIL8dO0kLDYZ4pY6brUA6hETdXd3SX1QoclMiycJh98RPi8Yx3InN2lPu91/Pr0Q94R3gjeTOhW1tlURNlvAeItXDQHds+JFzIKeEUNZMk4+oaFGkGTSPGbC03//e9d2MltPawwsePshLxM+QK1Emxw67njsTb+d8zf8+D3ulMuN1YYq38yKG30kYreqQrhMYn4+r8L8VrCY2eIqkDF5rBM1Vrxk4jbj5w0GjeV/T0cPx4RAxSpEqGWSa42T+HP8/8XzzsncqoW9CKjxxwC433gAu1tXbX9g6+C9kQzuw73SV9Hj2xg7pip92W7fTWJz59jUb3EPGTo0zNpAlI8F3/fK5PvJv3Nb7B66OHKJusVn7kBQG6gLkbPzaTYNQV+ETxq/zD4CU6zdXPwdNwmB315kMH2+TyP/zHnhnSqz798WM5jpR2xY8lJkV9X/xcmfwAD3mnkXY1DZCA11rlCbSlduc2Dp6LGY/zJFyoddx+FgOhvgGdQFNpR3wIMQkCUtS5IvW7POWdTNZVNDCaKJs/miu7Vt0kWBfO8onitRRMTgPSbwwQOcxUVXtbRY8cKH4iPBbMCKHRXV19zW8+l8fVtJV2/37PMeCqDLsysc5R9p/Q6cBF0SMHM+QKXJn8AFvtRjKuqgHp16PDEN2t1SNqJskJ4Q4+Xvw6c57eyddX23HsmndsiaJHDs4jYreZoG5SmiD78wtAPAuuqi20V8RY0q7BZDhLqLu5+oOj+Q4tUfTIoQ24El9M/g67zWpd1NyPW2QITg8i7ClVk+SVwfP8cemb7PLGdDDTJ8xUTae2FD1y+AMEQ4YqW+0GaiatCbKftsYY4t2AVnl6a+cHNIxPxtXYGE5TMDmstuseL91YBy6KHlmsjKtyZfIDFMwQKT3fo3+CZ1frtJbOgPSciknzymArf1m4khFXYt4OKnx6dns2mJ01XZen6JHFchiGXJGf25dRNRmt9vQyD3Ct4KmhN+L1KINj3g5wQriT/yP/eUbjArN2CKs9Y+8ph81VHq30KHpk8ZI0uCp5KQ2SJGloQHo1eGKIp1srPAkNSW9PuI5ZO8SJ4Q7+Ov95xqM8M3ZE4dNLfIPZWdcqj6JHjpTDMOIWeMg/jSpa7enKoDnUTwKI9gueJLrosU/CZ7cd5aRwir8pXMFEnGe3HcXTXrI3FELtWTu5STUEnb7fjPha4kLeGN6PT0igpYDO11rWdnkOvbztgSsqePozfGKm7Rgnhdv5m/zn+Nuh3+MZfz25wzyby2EYjQv4RHo/XydKGMyuBkQOrD4fRY8clRG3wPe8N/Pr0Q/wNNl1fvBYcHMQzx8melwzfBQ8/XpAE7PTTnBSsJ1PFL/CzZlfYzguH/bX3JB+MzGWhAs1iJ227c/vvZZHc7SiR47Jt5Pv4u3Vu3FAqI+t84NngcVfn6Pg6e/w8SY4OZzitPxVuMOcFzFEjEQlvpA7nxwOn0iD2CmSFjNThSAGT9Gj6JFj2Jc6hlyBW/2zeGt4r1Z7OpVtru64vLYsObLwqZg0FS+9qD6+sHoXAF/IXcCAq+haoA454DEzrZtNdFqr06dp6QYRHrf6m8lR1gXNnbnnagbPAnrGjiznvpUZO8x7qnfzO5UbKdqsXmLabg5IWZgPmqs8+jgUPbIUk50jS5VvJd5FpL1qZ/EVPLKyFuwgv125hw+VbmTBDmhA2nrAYzC7dfGyokeWPHoCEnzfezNDrqjVnk4KnrnWKS1tTbJiiwuGgs3y7uq9/F7pRmbtsBYY2vNBQNI0b1MPnFZ5umPKlq45oCDCEvPV5EW8M7hRA9Juidbb0Pfemq4JT1ZQjKVkM7y7eg/OGK7IvZNV8byu91vRPajB7KqvxMXLCSDbOrRaqiNeC5SBvnrPkaKnixgcDZL81HsNlzauJW+GNCht3HL2rfAoeKRNIiwVm+bdlXtwGD6XeyeT8Zyu81kpFihGzVUef1nH/FeBvwLWAbUl+j03Av8JuFrRIx38gYXEeHw5eSnvCb6l63vatNW4+eYPVsEj7RXiUTUp3l1pPtLiioF3MhkpfFaEo7nCs/xDPQm8ARhfht+37zpVuojBUSfBE97L9b6edkg0YydeUPBI5wiMR92meE/1Hj5c+i7T3pje4N5baqCHMi3RMau0DAPrgeAoe3+u9bMCperIuKrO3bdha9n34EGd0pKOOhiCRuuFbu+p3gPAFbl3siae0zwhoug5oN8EvgRsPYr5JgT+B/BP6Pm6vRs8861XS2iFRzo1fIwPDt7Tenr7FwYuYHWki5tFFD2/bLD1nxuP4teGLP25VumgrWTfc3gUPNIF4eOc4b2Ve7DO8fmBC5iI8xocEUXPktLb/3o1eOYUPNJd4RMajypJ3lO9B2PgC7nzGIuLGhzpe7qQWeRQHM3LB52CR7rsKMx4VGya367cxQfKt7DHjmhQRNGjIRA5CL950bIrojVR6UoRFo+YsbhIglDX9oiiR0MgchB7V3lEuti8HeKc2o+4rHIru71RZY8oekTkJRKtVZ48eomodH27GxwjUYnBuEKkaV8UPSKL/r4kl/H3T3bEv3LvQwgidB2P9IRZO8S7qt/jvdW7mPbGOuWFxSuxvfvaiuWlXwjpwiM3iyNFnXBlP8IG8GwrCZbyJXUWiIGdnbJVuL23qCf0fZPuZ4DAJJiI8gzHJSomTdbV2n2NzzTw/H7b/1IbaM0purNWFD3dzLZePLrVHMcqN0O8cgt224CLWymwHIeKhQ4YXIjABWgdVHrKrB3igur3SbmAfxy8kLLJkGvvk90/CXxhmbfmAlDSpy+Kni7mETFjx/lS8nL+tvY3zJrxlVqubgDP9XBNAhDvad2xpVUe6bGDpWlvgs21+zHEfHLwfZRMhoH2hc+e1k8XT8ZGJ8+6c5qXrquq4vt3AAAgAElEQVRV11yxfcy+El+rtwoekUV9zWOmvVWcVbuf/1j8GgYomWynXOPTXQxQjiBwCh9Fjyy3BAG77BquTV7ESDyj528oeEQWHT47vTWcVbufj5e+BsZRMhmFz5FwQMpi9jSgEoHV/KvokWXe5gwpV8dh+Zl/Osmjejm87AueGXAFOuX+MZFl5e0Nn+r9/MfC3hUfhc/iB9BAMYQw1iMtFD2yUhIETNl1fDPxWwzFW8m58kpe1Nx7wZMCzfnSd+FT+yEfL34dgLLCZzFHnJAymJmgeXpLqzyKHlmpbc+QaV2EeHPiIh71XsUqxc/RBU9SwSP9Gj6TnFVtho8DKiat8DlM8FCKmqs8voKn2+jurS6XpMGMmeCzqd/n5OgZdtvVrI2nOS38HlWziqIZwNO7FA4dPMt1A75It4SPv4bNtfsBwycHL6JqUmRcXdcK7h87voFk87SW2VqD0EHCaO5Q9MjKbosGn5CN8VaKZoDPJn+PV0VP8Jw9npPiZ/mV8PtU7BpKKH6AfXdZuP2DR0Thw7S3ms31HxEbwz8NXEjNJEm7Rn+Hj6N5zU7KYvIhzERQCJt3bCUVPIoeaZsYS4KATfHzzJpRrkxexmujh3nMvoJfiR7hVdH9lOxaqmSwy/Lw0y4JHtO6S6uk4BHZnyVm2o5zTu1HOOCfBy/E4ki6sP/27fvFDoXwhet3CmHz/6bgUfRI58RPigYnxM8zbSb5WfI1PB2dzI/j1/HG8H5OiR6iaNdSI91f8WMA2zqlVdI3X+TA4ePYZcc4u/YgDss/D74Xg8N3UT8NAiQtlELM7gbUYsi3Yidrm7Gj4FH0SOfFT5oam+Ln2G7X8xPvtWyz61kdn8Hm8E42RY9TsGtokOz9ixb3D56CvvUih95cHHvsMJtrDxJj+JeB95KjitfrB0mGZtiUI8x0DYK4ubKTMIodRY90Vfy4GhvdVp63x/NT77XMmAmG/Ty/FXybcTdH0Qz2dvjsDZ6ivvEii93/z9lBzqo9iAP+deC9DLgKthfnCUNzZacWYZ6vNe/K2hs7acWOoke6Nn4yrkrOlfmFt4miGWDaruFP658i50qUTa43w2f/4NFDxESOSMHmOKv2EAb4l8H3MhSXe+sfmDAQOMzzVYhdM3Y8xU4v08Nc+jR+1sS72WaP459TH6VkBvY976eneBDPKnhEjpbDULIZ3lZ7iI8Vv0neDvTI4X7zRaFmWw2zo9aMnUrUXPHxdJGyokd6cjIbdnmm7Hr+NfVRKiZLinpvBc/ei5YVPCLHcKBkqNg0Z9Z/zMeK17Ngu/x0uDGYqTpme735Koly1IwgPVlZ0SO9Hz6DrshOO8n/TP0RVTIkeuGN7fsHj77hIksQPpaqSXFm/SH+pHQd890aPta0VnYCqLROZXmKHUWP9FX4ZFyVnXaSf0v9AVWT7u6HGO4fPJrLRJZMhKVmkpxZe4g/KV7PvB3qrvCxBjNVg7JiR9EjfS/tauw0a/hM8vdpkOzOZ/i8dIVHc5rI8oRP/SH+uLXi0y17un3Bo9NYih4RgBQNps0aPpP6feqkuit8dEpLZEXD56zq3mt8Bjr7JgjbvIZHb0QXRY/8kgQBO80kn039Hg1S3fFcDqtTWiIrHj42xVm1H/Ox0vUUbJa4Eze+fae0Iu3tRNEjBw+faTPJZ5Ifpt7Jp7oML74t3Sh6RFYyfCo2xebag3yseD0lkyVq9y6l9fR1nGvekj5Vg5KCRxQ9spjwsWuaKz4mid9pFze/9F1anoJHZKXFWEomw9n1B/mT8vWUbZoAb+U3xb2xEztwYHY1ME+Vm8/e0SMrRNEjiw2fnWaSTyc/Qp0kCYLOOHe//9vSi/oWi7STw1AwWTZXH+BPi9dRtUnqJrFyd3ZZIHIQg9ndwDzZih1rdCAkih45MkkCps0a/i31B9RIk6bW3vDZGzx6tYRIR4XPgh3gnNoD/Ifi9TSMT80s48uMW6e2cUAIZibA/LzcvHZHt6KLokeOLXwa7DBr+VTyD6iSZYBSe1Z97EuCR2+OE+koM3aYc6r38yfF6wjxqZrU0oaPATwLMdBwMNs6jVVqvSBURNEjSyFDlSlvPZ9O/T5TZj2zZpyReIGEW6H4aX1T953SUvCIdByDY483yjuq9/OnpW8Q4lEx6WMPH0NzBScGahHMNU9jmXyg2BFFjyw9hyHnyuwyq/kvmb/ma8kLedY7kTk7xlg8t7zxszd49l60rOAR6ejwmfbGOKf6Qz5e/DoxlrLJHF34GJrvxXJANYb5APN0GTMfQMqCUfCIokeWMXw8IibjabaZDfxF5m+4LvEeHvNeybwdZSKeIUGwtM/r2P+UVkHBI9IdOxbHtLeKs2s/5D8Uv44DSkcaPn5rHimFL8TObAPSVg8ZFEWPrGz8+IRsjLfxjD2Rv8r8Nd9KvIsfe6eTZ4hV8a6lueZn/1NaBSChsRfpnp1LzE5vNWfXfsDHS98As8jw8U1z2y+2YucXVcxMK3a81qqPyFHScbMctRhLkgYnxL/gMftKbsu8nXeEt3F69BOOj7eyLtpGwY7R4ChuX93/lFYeSKHJrtNbGEINg+zPI2ant4bN1fuIMVyZO4+aSZJw4YFjxwH5EAKHma4354GUjs1lKWNcZAniJ02NU+Jn+Kn3K/z31J/zXf987kq8nRopJtwufKLFr/wYINrvlJaCpxsYHUTJwcNnknMqd3JiuIN5M/jigyDfNH/yQfMC5e01zO46JM0Lp7hElogmKVkyER5ZV+UU9zQ/8t/ADeZ8fjP4DhviKd4QPciE28WCGSfEP/TKjweuAW4BSHdE8JwIfATYAFT1SR/go2/OJb/ehj/7fcBaYEgfwwENAg8C/wQ02hk+ZW8Vb6w/yrbUaorJXHO1xwDzIYSuGToxuhtLFD3SffGTc2UGXZHv+29mwYywM5hkldvDGeH3mXB7mDdjxAdaaDTNqdmVaF7D0xkrPCcAvwdM6tPtOG9q/cjBHQd8tp3RA1AwWS6o3snPGifwPXsqCYLm+7F2NyB0zZUdPWxUFD3SrWIsg67IsMtzt/8WKmSZNeOMugU2B3eQocqcGXvxaS8LLgA3T/O0VmeoAHV9otK1xyEQdMTfJGVhNsBUaxjb2qR80wweEUWP9Er8DLkCw+S50z+TEJ95M8Kwy3N+cDMeEfNmtLnKE7Su40lq3ER6yaCpckf1jTzr1pJOhnrGzpGpt+JVFD3SLRyGYZcH4A7/7VhiFhhlxC3wW+G3CG2CeTeCyztFj0iPGbA1bqq+juej1ay2+aV9nteRscApdM91YEXgVJZn7fs4YB2wvgvGwQNKwDYgr+hp9/4cahqGxRtxCzgMdyTOJE2dOW+U4TDPmQtbCBL6Wor0mshZRmyZ1FI/wPTIJYC/AM6gO+4LjYEBYHgZfu8PAufTHU9BGwQeAP47cHcnRs9vAFnafPHcIk23yv9YjhxeCbyt9QXt9HVbH9gN/Lydn4/BMermibHcltjMhnA7m4u3KXpEZDlZ4GSaNyj0u/HWT7fY2IqfY9r5LZfPACcBe7rhIIRjW+r0gAuBc7vkizMMXA/8J2Cm/TNQzIhbYJAiztN5fhFZVg4oaxi6UswxXtu0nNGzjuaVGev75MMYorueFbIWvdhBRET6iJ7I3L8CdDeAiIgoekREREQUPSIiIiKKHhERERFFj4iIiIiiR0RERETRIyIiIqLoEREREVH0iIiIiCh6RERERNEjIiIiouiRHpCi+aLUjhAbS5BJ4SXi5usARURElpjfpX/vGs235DpgKV7LHQNZIHcMv0cVqPDCG3yrS/R3W0oGaLT+5wdb49hWzhjq2QwmcKx+fBuVuQRmAlysjVNERLonev5fYAIoLfHvmwS2A88vYfTsBj4I/NFR/voI+CbwDZov8twGTNN5K2k+sKcVZ+0v11wWG0Uc9/OnGZqb54zPf4PtJw5y4qUVGgu285JRRHqB6eIDfn12x7hnWM4P/m+7bDBfcwy/1gE/Aa5DJ2cOHzsDORyw6dEnyBaLnHX118FBaXyIZBxT2uqRGnM4vQNeRJaeax2oSnd+dse0j1XtLp2UhuAQee4c1YEcYTLJSQ/9jEypzJnXXk+iVqc0OgKANY7arGXPfUlOvKxKfVarPSK9wpqYYpyhgY/B4dq3cYfAZ4Hbu2ToqsBpwIXAwBL/3jcA3wLGumQfux14UtEjnRs7cUx1cIBaNssrfvRjMqUyv3Hdd8jl8xTHx6hnMi9qeC/hcCEUnvFJr4pxocZQpBdU4xRvTD3BrBmjThq/tdhSj2Lcyq6Ph8BXumz4zgTOXobouR34t376Hip6ZHmO6uKYyuAA5aEhXnXf/eTyBd54w62MTu8hv3qcwqoJDjTTmQTU9lhmH/A58bIa1d0Wo9Ueka6Xj3O8Z+xmvr91gtsLr2LYq+IcbBzJkvAMtTDStQEHlwUSGgZFj3Ra7EQx1cEchfExXv39HzK8Z5bT7ribNc9vY2H1aubWrsY4x0EP7Rx4KUdUMyw85pNdFxEHba+elLYV6ebNkg54PMWwX+OW3W/gxm05nqnMkPUiYgf1MCbte2way2CNoRrochtR9Eg3xM5AloU1q3j19+7n9Dvu4RU/eIANTz7N3ORqZtavwzjXDJ7DMAmo7bIsPOwzempIZafBtPc+uAXgcZoXP5b0aR8oVTHAemB4hf/sXcBOmnd1yi8bA56leVdp20TOks3O80+Pb+aRyiQbMwVi1+ywp2ZL4KAaRqR9y0njOZyDWqj4EUWPdFrsxDG1bJa5ydW88ocP8Ks338EJDz/GpkeeYG5yNbuPPw4Tx4uKnf13oX7WERQN+cd9Bk6MqM+1NXyeBP4USKO7Pg6k3hqb/wq8e4X/7CuBvwc26GM46Byf54Xnc7UleNZm57l1+uU8VxtkPFkldi+s3qb9VvzMlPBM8zRX2vc4ZWKAMI6phbHuZxBFj7SXiWMamTRzayd52QM/4U3fvol1z/yCk376CPNrVjG96ThsHGPio3vKoElAY8Gy/aYkG86vM3BiTH22beFTAX6uT/2wptrwZ07TXIlb0PB3nr3Bc+fs8Vz++GYKUYLJZJXI/XLGZBIeDnhyT5mkb6kGMZmkx8sncjSimFoQ6/o+UfTIysdOkEoxt26SE372KGdc/x3Gd0xz8kMPk58YZ3rTRmwcY+NjfKSyAy/riMqGqRtTrH9ng4FNUTvDRw7z1aB5saXIi4Jny9xGLn7sbBbCJOtSlQMGz4u+REkP5+Cp2SKZhEe5ETKY9Hn5qgGqQUQ9VPyIokeWe4/mHGEiwdya1Wx48mne9rVvMji3wMkP/Yzi2Ai7Nm5Ymth5afjkWuFzQ5L157fCZ07hI9IdwXMc73/0HBaiwwfPi+YbA9mET+zg6ZkyuZRHvhYwmknw8lUDlBoRDcWPKHpkuYKnlsuSzRe58JOfIl0qcfJPHqE8NMjMhnWYpY6dl4SPn3MEFcPUjUnWX1Bn4PhY4SPS4cFz19zGZvCERxY8+7MGBpIeUex4dq7CYMpnT7nB6oEUp4wPUGqEBJHiRxQ9smTR4ahn0qQqVc7/3JdY//SzzQuX165pXqAcxyvxV8DPOqKKYeqGNOvPr5M7PqKxYDTZiXRU8BjWZhbYMns873vsbArR0QfPfsc9WGMYSHqEcczWhSr5WsDOQo0Nw2lOGs9SrEcEkdN8IIcPaQ2BHEqQSpGs1njXpz7P6m3byU+M08ikVyR2XjrzeVlHHMDUDSlKv/BIDjm96Uyko4KnwF1zG3nfY+dQihKsTR5b8BwsfhpRzI5ijZ/PlLjjmVlmyg1GMj6eNZoSRNEjRzmJJXyS9Trv+vQXmZjaSWVw8MhuPV+O8Mk44hB23JSi/LwlMajwEWm3GMPadIktsxu58LFzKMceqw9yl9ZSxU8u4VEPY3aX6jyxp8TtT88yXw0YSvlYo/gRRY8cySTmefj1Bhd85krGp3ZSz2XaGzwvCR8XwdTNKUpbLf6AwkekfZukYTJZ5s65DVz02GbqsceqRO1Fz+JZpqkAawzZhEctjJivNnh8d5Hbn95DoR6QTXh6vo8oemQRwWMtXhBwwee+xPiOnTQy6c6KCgc23Qqfm1KUt3l4WVWPSBs2RVYnqtw2v4H3PX42gfMY85c/eA4UP2nfUgkiCvWQR3YV2fLsDJUgwrdKH1H0yMEmEGPwg4DzrvgyYzumCVKpjp1tbar5nztuSlLZ7uGlFT4iK2ncr3PHwlouffwsImcY9uu06/nJDvCMIelZakFEqR7y4FSeYiPEU/iIokcOFDxeGHLe569iYmqaMNnhrzNyYFvvHd5xSzN8bErhI7LcDDDiN7gzv46LH9+MwzDoBbgOOaFkjSHhWcI45sHtC5QaIZ5u7RJFj+zrB2vxwojzrriK8R27CJOJ7pmA/eYsvOPWJNUpb18IicjyBM+AF3Dnwloue/ztWOPI2rAjL6uzxhDGjge351vho89P0SN9L/a81grPlxnfOU2Y6L7HNxm7N3xSVHfYZvhoghNZ4h2GI+cF3JWf5ANPnIVnHCkTd/R9BNYYotjx4FSeUiNCZ7oUPdLHIt/HDwLO/9yXGd8xTZjo3mUSY8FYx47bklR2WKyv8BFZyuDJeiF359fywSfeTsJEJEzcHXODgcg5fjy1QLkR4RmD1ekuRY/0EecIkslW8HyJ8amdXR08L8xuzfjZ2Qofo/ARWZLgyXgRd+cn+eATZ5KyMZ5x3TY1EDr48VSeQj2kFjbjR9f6KHqkhxnniHyfWi5Hsl7nnZ/+IhPbdxKkkj30jwTjNcOnqhUfkWPcnBxZL+Le/CS/88SZpG1Etz76z9Bc8bl/2zw/2r5AsRFSDiJ8z2B13kvRI70XPLVshlw+z+iu3Zz/uS8xsX0HjXSqN/+9Huy8PUllp8H6uqtL5GgiYcALuTe/hg8+8TaSNu6Jf5dnm9f53Pf8HD/ZkadYi6g0IpKexdPTnHuaXjjaJ7ETJBPUslmyxSJv/8p1bHr0CQrjY9Ry2c540vJy/dsN7Lw1zdqz62TXR8QNHc2JLNag3+CuhXV88IkzSZi45xZME56lHsXc/dwsI+kEr5kcxBjDSMoniB2hc1ok7jFa6enl2IkdYSJBfmKMwfk865/5BedfcRUbnnyG+dWriK3t6eDZd6hqHDtvS1HdoQcYiiyGA0b9OncvrOUDT5yJZxzWuJ6dIjJ+84GGW56d4ZHpAjPVBuUgIpvw9BLTHqOVnl7ciFsXKZeHh1jz/DYmn9vGa+66l1Pv/QHzk6spjo1g4v7ZjI0FFzumbkmy/twG2eMioorRdT4iBwmeVYkadyys4/Inms/h8U3c+/OEgYGkT6kRsuWZWdYNpTl5IkfKs4xmEtTDWCs/ih7ptNgJEwmKo6Os3rad4558hpf96MecfsfdzE2uYffxx2HiuK+CZ//wwTWf3LzuHQ1yx0WEZYWPyP5iZ5hMVbhjfh2XPn4WQMc/h2epg88aw3DaJ18P2PLsLBtHMhw/kiGX9BjLJqgGMWGs+FH0SNtjpzA+ysT2HfzKo49x/KM/51dvvp25NWvYecLx2DjGxHF/j5MHcQA7bk6y/rzmik9YUviI7AuedIk75jdw8eObiZxhwAv78tTO3vd4jWZ85ioNnp8rc8JYjnVDaUYzCbJJj1oYa+pQ9Eg7gqeWzZCs1Xn9rVuYfG4rb/zuLSysXsWOk07ARjG2z2NnfzYJcd2w/eYk68+rM7AxJigofKS/Rc6wNlPgzrnjuOSxswmcYchr0O/rGc6Bbw1juSR7ynV+MV9m40iWN6wfJtW6CFpTh6JHVjB46pkMBsNbv/EtXnfrFopjo+w4aVMzdiLFzoEO4WzKEdUMUzem2HBBndzGmMaCaZ4CE+nT4NnSCp5abBlt49vSOzV+Ep5lLJtkZ7HGg1Nw6uQQKc8SOV3m3FUHvhqCLp6sfJ9sschZV3+NU++5j+lNG6kO5BQ7iwgfL+1woWH7jSnKWz1Sow6nYZO+Cx7L2myeu+bXc8njZ1OKfQXPYeJnMOXz/EKVQj0knfB0Z5eiR1ZCc5UnTbJW5/Tb72J+co1OYx1p+GQcrmGYuiFJaatHakzhI/0WPPPcPXccFz96LvkwwUSipuBZZPhsz1eZrzbw9RoLRY+swITl+wzPzDWDZ/Xqvr9I+ajDJ+uIgmb4lJ+3Ch/pq+C5a24j73/0XBaiJGuSVWKnHfhiJDzDL+YqVIOYlG+12qPokeU+1AiSzXdlvXbL9wiTCY3JMYSPn3XNi5tvSFF+Xis+0j/B875Hz2EuTDCZrBApeI5kCmYo5fOL+TLz1QBf7+1S9MjyiX2PwfkF3vSdm8hPjPX+U5VXIHy83N7wSVJ6TuEjvR08d88dx/sfPYeFKMm6lILnaPieYXu+RqkR6k3t3fS5aQi6cB9tLelyhVfc/xCFsZGVip7VwF8Ak0C4TN/FInAlcHc7wsfPOYKKYermJJNnNhg4PiKqaTKT3rE6WeE7u0/hD598C/Nh24Pnw8Dm1sH3chxiZIA7gSuA8pJPGQ5SekGpokdWZgcde5bKYG4lV3lGgQ8BQ8v4Z5SBh9oSPa1JzM866jOW+oxl9NSQsKJb2aU3RM7gpco8UBpnZ2WE4wdm273Ccy5w8TL/GUngmuWIHulOms5lsQJgbrnnZaDU7qBMDsfkn/CZ+2kCP6djOOkNk8kqX586lS/vOoWJTL4TTmnNrcCfUWrNKyKKHpEDMQmo7bYEeYOfcWjtWrpd5AwmWeXp2iDPFCfIeaEGRRQ9IkJztWckZv5hn/mHfbysqke622SyylenXs2/TL2aVZmCLlwWRY+IvMD40Ji3hCWLpycCSFc3vMH4DaYaWbZXRshYrfKIokdEXrynIDEcM/ugz8JjPl5Gqz3SndYkKlyz85X8/dbTWZMp6InLougRkV9mLIRlQ1gF42k8pAu/wwA2ZlcjzWw9S9Lo4VOi6BGRg0gMOWZ+mCD/qIeXduggWbpmcjeOiUSNL+58Bf/l+TewNl3UNfmi7UJDsLQHVdJ7n6rxYXpLisLPfbyUQw9flU7nGceIV+fKXafw0afOIGdDfKPkEdHDCV+w91kO9aOInaD1I73YPRa8tGN6SxIHDL8sIm40H2Yo0onBM+QFXLW7GTyjfh3POK3yiCh6XuSHwN8B80cRPRFw30quPkS+PrqVLZ9m+OzakgQaDJ0SQaDwkQ6b0I1jwAu4atdJfPTpMxhP1NE7wEUUPQfy09ZPx7NRzNDMHDqj1obwyTRXfKDB8CkRcYheTCodEjwxORty1e6T+ejTZ7A6UdWgiLx0/6kh6C6R75Os1jj3i9cQ+bqlqC07l0xzxSf/lMX46N1c0hnB44VcveckPvrUGaxR8PTcR6z99dINpHQRLwpZNTVFlNBH19bPIevYtSVF81RXCIHRqS5pU/C4ZvDsOpk/euoMJpMVnFaBV4QDfGtWokaqNN9VNghUluj3HOXIr2FV9MjKiT0PG0acfeW1hEk9Jrjds52X2XuNDwyfEhIFRu/pkpWN79Y1PFfvPpmPPnUGk8mqgmcFWQPztYCBlI8xy3qN38PAnwE5lu4FqoPAvYoe6dwNLIrY8OTTNNIpjJYVOmOns+8aHxh+WUjUUPjISu1wHcNeg6t2n8wfPXkGa5JVffVWWMqz/GxngbFMktFMgka0bBf4TQPf1ogvwXajIeiShQVrCX2fs77yDWwUaUA66cihteJTeKr5HB8daMtyMzhGvXozeJ46g1UKnvbMy0Am4TFTqVOPYj3DS9EjSzbJxTEn//QR6pkM2rI6j5d2TN+ZpPCkj5/W7keW13iizlV7TuaPnzqDcb+uzm6jhDU8Ml2kHkb4VrvUjj9I1RB0wdGEMTQyad7yjW/hjNVdW5156I1N7Xeq61XhYU9zGQtRHaKa0R1gfSxyhiG/Qc5vgFtMvji+tOvl/PGTb2HYb2D1pOX2zs9ANuGxs1AnOerhWT2/S9Ejx+yV9/2IeiaDH+jBzx3bPRZs0rHr7gRx4/D//bhuyG2KSE/GBHmFT78Gz9p0iYeKE3x3dhMj/uFvpjHAXz73qwz4DRIm1mmtTtiRWsPju4tsGM6Q8jwCPbxL0SNHrzw8xJu+ewteGPL/t3dnQXbdBX7Hv/+z3X3pbnW3Wmotli3ZkuVFGEuALANDBkxmyAxQKR4SkkyFSYBkJg/zkkp4mzyRqlQlD6nUVAbGrPbADMNSZMDMGCwIKNgWtiywLdmWLbkXtXq9+7nnnH8ebst4jG0t7uUuv0+Vqngwfbv/995zvud/ln/k666tbg8ffJj5UXDlHV7TkNsZM/k7IUEpIVT4DGTwnG/m+dSz93JiYSf4zav6/04ENTwtLdE1LJANXF5arnPDUBbX0SMsFD1yXRLH4W0/+FEndvQl6o3wMeAXrvxmBSVLc8bh/LcCdvyTFkHJKnwGLHheaub4yFP38VhljN2Fi0T26t98bQ66i2sMZ+Zq3DCUwzWGSNXTlbR57eadp7VURoa48+HjpGs1rKPLFfvq6DCBYMjSvORw/lspwmVDULQ6Quz3AxlrmEjVeKmV58OnP9gJnszSNQWPdOH3mc6dXM8t1AjjRBeXK3rkWkW+z5Fvf++V/y39GT6psqV1yeHCt9KEKw5+QeHTz8EznqrxUivHh0/dx+MrowqefjpQNfDCfA3HGBzdZavokWv48iSWlS3DHDjxKNlKFevqjq1+Dp+gbGnOGy58JyBaMfg5q/MXfRg8o0GdC2GWjz71AR6vjLI7s6zg6TNp3+WZuSrtRLM9ih65amEmxT1/9W38VkiYCnQP5CCET8nSnHO48J0UzYsOTqBx6Sd5r81TtRH+6VPv59HqKLszKwqePnVhuYnvOhjN9ih65MpMkrAyPMSeJ0+TXalolmeQwqdoqZ53iRoGN63Znr55bzHkvRbzUcCJhR3sSleIrHaI/cp3DU/NrBAlunVd0SNX1MxleYSyG2UAABxhSURBVO+Df01ueYVWJq1ZnkHaOVpIDSdcOuFTf1mzPf0i57R5bGWMz7xwN6PZZWIFT99/j2errdXZHo2HokfekLGWWqnItjMv6FqeQf0MeFC74JJEBsfXbE/P7wCBnBsRJi4/XdpOxok0KP3+HTbgGMOT0ysk+v4qeuSNNfJ53veVrzM8e5FmNqNZngHdSwblhIvHfRozmu3pdVkn4mR1hH9/9l2Mpyvo8tbBkFhYqLfx9KgRRY+8wdGBtbSyaba8PE26WsO6ensG9rPgQvOii40NxlX49nC/EjgJbevweHWUwMQalEHZuRqwWH4xtazBUPTIa7eMieuwPDLEe7/614y/8BLNXE6nNQb8M+EVE2Z+GNCcc3D07PSelHFiflkv86+fvZeJoIbVLM9ASayl0or0zJ4uok3pph7OGyxQLRc59o3vcNPJJ/HDEByjpy8LxkC4ZEgiA1pJu0ePKi2t2OW5RpFRv6njmEF7/42hHVtOTi1zaFuJRJcrKHoGsv4dBydJaORzHP7uQxz88QmsYwiaTSLfJ9bFy3L5C5q1zPxdwLYPdtbmsroGtmeknJhzrTz/6tn3MKLgGVgWS6MdgwWDJvAVPYPywTeGxHE6K6UHPnc+fJy7HvohYSqF2w5JPI92oCtW5TUMRA1IWtpa9tx33hqWoxQXwww5t60BGVCOMTSjmMemlnjbttIrt7Br0kfR07+x43l4q6etbn70JO/81t/SyOc6Mz5xTKx1teRNuCmY/kGKHR9q4eUtVtfCdj3fJMy10/yLp99NVsGj8DGGpUabk1PL3DFRIrEQeIbEglX9KHr6JXZi38drhQSNBjec+hXv/trfUC8WCNMp3Dgm0WksudrPUwRR3eDltIHsBQmG6XaWhvVx0VN5BVzHsNyK+OHzlxjOBty+tUhsLWnPJbZW8aPo6d3YiVI+XqtNbmmJbc+d47e+/DUahTz1fA6SBOvopjm5NsaD6YcCdn60hZvWbE9Xb1RNQj32+Piv3oOj4JFXf48vx0+zzQ+em2NrPsWBsQIWyPgucWJ1sbOip1c+zYYwlcJrR5RnLjEyNc37v/gAzWyWermkE7iyJlvMcNGQHtdnqZvF1vB0vdy5dkNvlbyBlOuw0Gjz0Nk5dpQy7NuSxxjI+S7tJCFevfBZFD0bt4+xlnYQEHse5s2ixRicOGb0whSFhUV++wtfJfJ9aqXV2FHwyBpFz/TfB+z+WBPH7SxQKt3FNZbEGv7g2XcTW4OrRw3Im3+lyfkuc7WQF5fm2DOc5YbhLJ4xZH2XMEm0+1D0bFDspAKauSzjL16gsLBI7L3xUFnHIWg0eP8XHgBrOw8WBMWOrP1n04XWrEN6q4qnGyXW8GhllJQT00i0eZUrs3Se3lwIXGYqTc5eqrJvS57JUoa075INXMIo0WkvRc867FCSTuzUi3m2njvP6Pkp7v4/D7H38Sdp5HNv/sE1huYV/huRt75XhemHA/b8s2anqbUd7K6jdjfiE2fuIbYOvlGYyrXGj6GU9nl5pcmz81X2jxYYy6fIBx4Z373u8DFAbC3tRM8EX7foaRTyPTcY7VTA2IsXmHjhHLf/6P9y8PjPWJgYZ377BCbRBky6g+ND7bxDdrs+k9222/re4nZyTkQ11mMo5Prjx3U68fPiYoNfXaxyYDzPlmxA+zqXbI+tJR94bMkGtOKEaIDjZ92i5+b/93jPDUa9WODg8Z9y6OHjzE+MM3PDTpwkUfBIV00nJBHMHg+46V82iEOj2Z4usSVo8sdn30UzcUk7ur1O3mL8WPBcQ8nzeH6hzpn52nWHShgnbC2k2TOcI+u7bMn5NNoJUWwZtGXB1i167vv8l3vvCDpJaGazTO3ZjZMkOIod6cbuMZ1b2FfOeOR2aefaDVxjefDijWTdiNjqnhtZ2/gJ3Lf2mJOM71JpRhx/YZ4d5Qw7yxkKgcdI1idKBuuoad2ipzJU7tlBUexId1dPZ1mKiz/12bs/IqppJ7upOyUMI6kKnzl3N/PtFAW3rck36bpwch3DcNZnqdHm/FKD3eUMk6UMYTxY+ztdyCzSi93jgvFh6SmPwp5YNwpuopSJuX96P55JSDuxgke6On681fi5VA+ZrrR0ektEeqF6IG7A/GM+w3dEhMtms59k5gzi9iSxhnJ2hc+ev5OpVpayFyp6pCfix3cd/AFcCUnRI9Kr3eN14mfhSY+h2yPamxs+MfACMLv6byPsAi5tZvBszSxz/4WDtBOHnBspeEQUPSKyLtGzem3P7COd26OH74hoLZnNnK7+n8CDQLRBrxcAFzal8KxhIrvEl6YO8Ednj+KZhLyiR0TRIyLrGD4+GAuzjwRgVsNnwWA2Z03bmdV/fS22DhPZBb48fYBPnzmGYxIKbptEKyWJdD0t9y3Syyw4ARjXMvtIwOITHqlhq3W51jN4cot8ZfoAnzpzDGMsJTdU8IgoekRkQ8PHgRmFzzoHzwJfmdrPJ589BhbKbkvBI6LoEZGND5/O01V/PeOjFZrXLngME7kFvjp1oBM8wJCn4BFR9IjI5oVPysIr4eOTGkq0TMVaBE92iQenDvBvLwePr+ARUfSISHeEzyununyCssLnLQVPZpkHpvfziWfvBbM6w6OlJkQUPSLSJeETWIyzOuNzysMvKXyuVYJhIlPhq9O38IfPHsPF6pSWiKJHRLo1fHAsMz9KsXjKxy9ahc/VDx9bU1W+NH0Lf3jmXjxjKWmGR6Tn6Tk9In0dPmDbltkfBdgEhg5qgdKrMR7U+cLMLXzyzFEyTkzO0XN4RBQ9ItL14WM8cIzl4iMBxkL5YETUMJr1eR0Gy6jf5C9mbubTZ46ScyMyToxV8IgoekSkR3bmbucC59kfd5asKN8aETeNbml/FcdYhr0Wn5/tBE/RC0mZRG0oougRkZ4LH6dzumv2kQCsoXRrRNJC4QO4q09W/vzMPv7d2aMMeS18YxU8Iv12cKMhEBms8HEzltnjPkunXZwUm7VOV/cc+ZmEohty/+xePn3mHoa9Fp6CR0TRIyL9UD6Xwydg6bTbWbR0QLcEnrHk3YgvzO7lU2fvYTRo4hrljoiiR0T6Kny8bGeR0uXTLs4Aho9nEnJumy/O7uVTZ+5hq9/AaH5HRNEjIn26489fnvHxML4dmPDxTELOifji7F4+eeYetgZ15Y6IokdE+prthM/MIz7Lp/2BCJ/Lp7S+eLEzwzMR1HRLuoiiR0QGJXz8gmX2EZ/l0x5OH4ePayz5V05pHWUiqCt4RBQ9IjJo4eMVVk91/dLrrN3VZy3grN6W/qXZm1aDp6FTWiIDRs/pkauVANEGvEZdQ72J4ZPrhA8YCjdGYOiLJzcbILGG+y/u49NnjzKm4OkG0eqnaz3zugHEGmpR9FybW4DtQDigf38T2APk1vl1AuAQcA5ID+hYO6ufs1NAdVM2ClnLxZ/4FG/qRE8/PLzQMRbPxPzJc0cY8ZqbfUJrF3DTAG9PWP1s71jn4AHYCdwDLAD+AI7z5cOWc8B57coVPVfrPwEfH/BZCLMBIZIB/gT4DwM8zhlgGvhd4ORm/RJuxrJ8xqV4Y0w/XPISW8PX525i2GsRWnezf52PA3864NsTC6Q24HXeDbyTwV1pLgDawGeA/6ZduaLnal3+cmY1FOseVsHqv0FW2uyjUpvA3M98yvtjbNTbsz0GKPhNPnPubhwSAifR9mRwuKsHEoO+n8/po6DoEelWbTb5OgQDeGlYfMqjdPO1XcoV41AydbKmiV2HeyUMCTWbYcVmcLmagLH82dStFN2Q5ubP8gAk+ojLBgs1BIoeEXmT6knaMP+Yx8idbaKmueIJghiHgmmQ9y7x88adnGjdTMFprPmvVkkyHE3/ikPpp7DJlSdLjOfw2fN30EocMk6sC5hFFD0iIq+JBQeMC4uPuuy5Y/GK0WOcOiebt/Lz+r2cCndzsn0jOdNc89+ratOcjSd4pr2Nqn3zMxeOgWfmqqRNiHUCBY+IokdE5PUqBkzbcuHJPN/f844rRk/ONDnZvpETrZvZ6i6wx50hXofTW+Ms8VI0xun2riue3jIGXgwbtLiIQwx6EKGIokdE5PU3EDFZ0+KbjXdgrnA1c4xD3jS5yZsixlmX4Ln8OhnTImNaV/Xfbxtz+P5yQmzBVfOIKHpERF7LWEsjSPO9g+9i2FQw5upODsVd9qD3ZpSwfyzPM3M1YqtFJ0QGmZahEJHX3zjYhFS7xVPb9vb837KtmCZKLNbqqh4RRY+IyKsYawm9gG/c9Y9IRy1Mj18C3I4tt28t4jna5IkoekREXh09QBCHPDe6g6QPVh41wEguIEoS3cElougREfm1yHH4y7ffh2MTnD44JWQBay13TpS00RNR9IiIdBgsXpIwVR4l7qPTQcZAKe2RaKpHRNEjIgKAhQcO30fsurhJ/6yYYC04xnBoW1HvsYiiR0SkYzFfIjH9t3kwxpAJPF3XI6LoEZFB58cRDxz5x9SDNG4S993fl1hL4BoObSsR6/Z1EUWPiAyulhdQTWVJ+vgRfgZDynPwHD2mUETRIyIDKRM2efDwfSzlCnh9OMtzWWItWc/l0ESJdpzojRdR9IjIIDHWUsnkafqDsRK5BVzHkPJcXd8jougRkUFhMRSbNf7y7vczVxzGj6O+/5sTaymkPA5tK9Jqa7ZHRNEjIpslxQYuBuzamNniCJHr4SSDEwCWzi3s+ZTLBl/T7OojLpuwTRG0yvrVmgEqwOzATgZAAGwD/PU8AAfmgOUBDvI0cBGobcgbawxD1RW+9M4P8XJ5nGzYGJiBjhNLKe1z+9Yix19cIO9v2KmuOWBl9X0eVAkwDpTW+XWqq+McA4N45boPRKv7MFH0XLX/Avz31S/OIGoANwNfASbX8XXqwGeBLwGZAR1rs/o5W/fAtsaQb9Z5eWicyPXwkmjgBju2FtcxlFIe9XZMynU2InzuB749wNsTVqPvfwD/fJ1f52HgPwOXVg/cBnF7YoFF7cYVPdd6ZDY34GOQA8L13getHpVd1EdunQ+zjaHUqDKfK/MX9/wei9kiuVYDawbrYPjybM/hHUOcOL9IPYxJe+sePkur/wbdyga8RgU4r/GWy3RNj1zLEYOzAa+h6x02IHjKjQrz+TKfu/cjzOfLAxk8l7XihFzg8o4dQ2R9l0aUYPQIn43apqw3l8E8rSWKHhFJjMNQfYVLuTJ/fuwjzOWHKDRqAxs8l/e8zSghG7gc2TlEPnBphAofEUWPiPR08AzXlriUH+bP7/0oc4Uhyo3KQAfPPwifdkI+5XFkxxC5lEtd4SOi6BGR3gyekdoSc4Vh/ve9H+VicYSh+gqJ9uq/Dh8DjTB+JXzygUs9jBU+IooeEeklmbDJuS3b+dyxjzBbHGa4trQRq6hfvg5srf+ta/jUw5hCyuPIziGGMwHtWM9sFukXuntLpM8lxmGsssDD+w/z3NgOdixMb0TwALwP+ASdZ4W01+Dn5YDn6Tw+4vn1Dp+RbMB4IcX0VJOhrI8WZRdR9IhIl8uGDR7fdYCz4zvZUl3cqOABuAv42Br/zJeBv1rP6LkcPrUwYjQXMFnKsNhs42tVdpGep9NbIn0sMQ4j1SXObdnGqcl9ZMLmRr788jr8zCadh1iuu3ZsmSimGc761MNI1/aIKHpEpJvlWg0e230rpyb3MbYyv5GzPD3PGKi2IiYKaSZLGcJI57dEFD0i0pUS41CurzBbHOHpiRtIt1salGvUji3j+RSFlEejrTu5RBQ9ItKVcq06j+0+wIkbb9csz3UyBiphxK5ylh3lDGGUaFBEFD0i0k2sMRRadZayRZ4bnSQVtTUo1ylKLCO5gIzn0IoTrWkgougRkW6SazU4uXM/D+8/zFhlQQ8hfAsMnWt7btySY3sxQxhrtkdE0SMiXcEaQ7rdoprKcGFoHD+KNChvUWwt5bRPyjO0Y6vZHhFFj4h0g2yrwZOT+/jb244yWlnU2lprwAC1MOaW0QITxbRme0QUPSLSDbwkph6kmSsM48Wa5VkribXkAo/ANWhlChFFj4hsskzY5OmJG/j2ne9hpLqsWZ41Vm9H3DpeZDyfoq3ZHhFFj4hsDgMYa6kFGSrpHK7VTnmtWQtpzyFwFZMiih4R2RSujUm1W/xy+038zdveR7lRQWdg1kejHXPb1iIj2ZSe0izSY7TgqEgvf4GTiNi4hG7A86M7ePDu+wjiEKMlwdeNBTzHEHgOKd8hsRZrLY5OJYooekRkPWInJjGGapDjUqHMg0c+iB9HpBQ8G6IZJewfy+M5hieml1lpRbTjBGtR/IgoekRkLfhxhDWGpWyBSjrHV498EGMtbhyRgIJnAxkgTiy3jRdxjOHk9DKNdkwjjLGA6yh+RBQ9InJdsWOsZa44TMNP8eDh+whdj0C3pG86S+fhhYcmSlgLJ6eXCOOESivubGQVPyKKHhG5mh2qIdNuMV3eQsv1+frhD1BNZcmETQVPl4lXZ9nevr1MO7E8Mb1MO7GsNCOFj4iiR0TeNHiMIdeqM1vcwlfe8Tss5EoUmjUyYVOD08XaSSd+juwYphnFPHphieVmG9/VzbIim03fQpEuDZ5Co8bF4gj3H/09akGGUqOqa3Z6SDOKcR3D2yfLFNO+VmgXUfSIyGslxlBqVJgtjfD5o79PNZUhHbX03J0eFCcWzzHcPVmmlPJpRAofEUWPiKwGj8NQbYXp0iifO/ZhKukc2bCJ1vXuXVFi8V2HwzuGKKd9qmHcWaldb6mIokdkUGMn3W6xbekiU0NjfO7Yh1nJ5Mm36lo/qw+EcULgGu6aLLFrKMNw1melGdFOFD8iG0kXMotscuxkwybDtWWe2LGPx3ce4Mf7DrGcKVBsVBU8fcIArTjBdxzeuXOYi7UW2cClGkZMrzTJ+i6+66BLtkQUPSJ9GTuZdpPRyiJPTu7jZzfexhM7buGp7XsZX5mn1KiSKHj6LnwSa1lqtMn6Lkd2DDFdaVFOBSw2QqZWmuRTHr5rFD8iih6RfogdQ7odMlZZ4PS2mzi+9y6e3bqLX+zcz9jKPDsXpkiMo+Dp5/gxnQucF+ttCoHLXZMlXl5usiUXcLHaYqbSopDy8BQ/IooekV5kjSGI2oytzPPM1t38/f7DnB+e4LHd+xmtLLJr/uXV2NFldoMUP9Fq/JTSHttLac4vNZgopHl5pclcrUU+8PAcozv3RBQ9Ir0RO34cMboyz7nRSb5/8ChzhSEe232A4doyu+anFTuKn1fiZzgbMFnOUEr71MIsLyzWWKiH5FMerlH8iCh6RLoxdjB4ScyW6hJT5VG+cPT3Wc7keXT3AcqNKpMLM4od+Y34accJS/WEkVzA9pJLNnBoRjFnLtVYbkbkA093e4koekS6h2Mtw7UlFnIl7n/Xh6ilspzctZ9cq872pYuKHbmq+AmjhNFcQOA6pDyXME741WyFWhiT9RU/Iooekc3cWWEp1avUU2m++M7fpRGkeXJyH6koZGxlHmuMYkeuKX7C2NKKY0ZzKTzHELgOYWw5PbtCGCVkPFcDJaLoEdlYhWaNyHV54Mh9VIMsT2/bg5vEDNeXsRg9b0feQkx3Zn7aMYzmUhggcA1hlHBqpkJiLSlPMS2i6BFZRxZDLmzgJjFfu/sDrGTyvLBle2ex0Gbtlf9GZK204wSAsVwKayHtuTSjmCdmVnBAK7mLKHpE1jh2jCEdtki3W3z97g9wKV/mwvAYseOSCVsaIFl34Wr8jOQCEmvJ+h61MOIX08v4rsF3HN3pJaLoEXnrsq0G377zvUyXR5krlAk9n3Q7JIgiDY5sqMszP0MZj0La5Vh6hJVWxOmZFc36iLwOfStErlEqbjNXHOKFLdtwrCUTtjB6dK5sZvwkFmthOOuTC1xifR5FFD0ib1W+Vedrb38/U+Uxis2aYke6SqudUEr53DFRfOUUmIgoekSuj7UsZguErqfgke77eAKeY8h4ntbtElH0iFy/UqPCN97+25wbndQFy9K1wjhhOOtz+9YizbZme0QUPSLXyFhL6AVUUjli46JVkKSrN+zGkPIdXAd9UkUUPSJXzwJD9RW+eei9PD2xm2zY0KBIVwvjhLFcioNbizTasQZERNEjcnVcm7CSzlELMhgdNksPCVyHlOvq+h4RRY/IlVljGKku8d3bj3Fqcp9meaRnhHHCRCHNgbE8tbaeISWi6BG5Ai+OmCsMU0tl8WPtOKS3JNYSeA75wCPRdI+IokfkjVhjGK0s8ncH3sHJXfvJteoaFOkprThhspRh35Y8tTDWSnCi6NEQiLw+P2pzYWiclXSOTNjSSunScy6v0J7yHEppX09qFkWPhkDkNyXGMFZZ5Mf73sbP9xwkr1ke6VGtOGFnOcOe4SxVzfaIokdEXisVtXl+dDvz+RKFRo1EszzXYz2mFRJA92BfAwO0ooRs4DKc8YkSzfaIokdEXqXQqPGTvW/j0Rtu0yzPW9vfrsc2y9XQXptWdHm2J0cr0lOaZXB5GgKR35Q4DtmwQTpskpiuODaYBP4IGAJ64TayKnBkHX7uKPAfgZeAdA+MQwo4B/zpptangXZsCeMETVqKokdEut0E8AerO/1BVgQ+2mO/8y83O3pEpEOnt0R6Q4iWURIRUfSIiIiIKHpEREREFD0iIiKi6BERERFR9IiIiIgoekREREQUPSIiIiKKHhERERFFj4iIiIiiR0RERETRIz3zeTGsz8rcIjKY+x9tT+Qf0IKjcrWWgT8DxlifVb5doAac7oY/1lirla6k71i66mP90Op33gGSdfj5KeAE0NQ7L4oeuVYLwH/dgCOnaLP/UAPErkPsOBiFj/RR8DgGHNM1kx/fBL6zzq+RdMM2RRQ90pvbzHAQ/tByvcLDt9zND285TLFZ1TsvPevLf/bH3fzrRQoS2Wi6pkfkVYy1ND2flUyOxHE6p7lERETRI9Jvis0aP9l7iIdvOUKpXtF3VUSkj+j0lkhvqANn6Vz42QunGSNgCzC+xj+3DUytjoPbA+OQBc7p4yui6BGRq/cMcLTHfud/A/wv1vbi9+eBjwFP6CMhItdKU+Yisp7bl7W+VcgDfA2tiCh6RERERBQ9IiIiougRERERUfSIiIiIKHpEREREFD0iIiIiih4RERERRY+IiIiIokdERERE0SMiIiKi6BERERFFj4iIiIiiR0RERETRIyIiIqLoEREREVH0iIiIiCh6RERERBQ9IiIiIooeEREREUWPiIiIKHpEREREFD0iIiIiih4RERERRY+IiIiIokdERERE0SMiIiKi6BERERFR9IiIiIgoekRERETRIyIiIqLoEREREVH0iIiIiCh6RERERBQ9IiIiIooeEREREUWPiIiIiKJHRERERNEjIiIiih4RERERRY+IiIiIokdERERE0SMiIiKi6BHpAtYYvCTCjyOs0XiIiCh6RPpUoVnjxA238/2D76LYqGpAREQUPSL9yY1jqqkMS5kiXhJrQEREFD0i/SffrPP47gN877Z7GK4tYdH5rTWgQRQRRY9Id+2ZLdYYqqks9SCFY60GZW1oIEWkq3gaAhl02VaTU5N7+e4dxxiqVzQga+c88D3AB9pr8PPywBlgWUMrItd1kGt1VCsiIiIDQKe3RERERNEjIiIiougRERERUfSIiIiIKHpEREREFD0iIiIiih4RERERRY+IiIiIokdEREQUPSIiIiKKHhERERFFj4iIiIiiR0RERKSL/H+qPy9PHKIWsAAAAABJRU5ErkJggg==;movable=0;resizable=0;rotatable=0;deletable=0;editable=0;locked=1;connectable=0;" parent="AjcsgLgm9lEstIIJ2gpz-9" vertex="1">
          <mxGeometry x="996.74" y="200" width="76.53" height="74" as="geometry" />
        </mxCell>
        <mxCell id="AjcsgLgm9lEstIIJ2gpz-82" value="&lt;font style=&quot;font-size: 16px;&quot;&gt;BI &amp;amp; Reporting&lt;/font&gt;" style="text;html=1;align=center;verticalAlign=middle;whiteSpace=wrap;rounded=0;movable=0;resizable=0;rotatable=0;deletable=0;editable=0;locked=1;connectable=0;" parent="AjcsgLgm9lEstIIJ2gpz-9" vertex="1">
          <mxGeometry x="975" y="280" width="120" height="30" as="geometry" />
        </mxCell>
        <mxCell id="AjcsgLgm9lEstIIJ2gpz-83" value="&lt;font style=&quot;font-size: 16px;&quot;&gt;Ad-Hoc&lt;/font&gt;&lt;div&gt;&lt;font style=&quot;font-size: 16px;&quot;&gt;SQL Queries&lt;/font&gt;&lt;/div&gt;" style="text;html=1;align=center;verticalAlign=middle;whiteSpace=wrap;rounded=0;movable=0;resizable=0;rotatable=0;deletable=0;editable=0;locked=1;connectable=0;" parent="AjcsgLgm9lEstIIJ2gpz-9" vertex="1">
          <mxGeometry x="975.01" y="455.5" width="120" height="30" as="geometry" />
        </mxCell>
        <mxCell id="AjcsgLgm9lEstIIJ2gpz-84" value="&lt;span style=&quot;font-size: 16px;&quot;&gt;Machine Learning&lt;/span&gt;" style="text;html=1;align=center;verticalAlign=middle;whiteSpace=wrap;rounded=0;movable=0;resizable=0;rotatable=0;deletable=0;editable=0;locked=1;connectable=0;" parent="AjcsgLgm9lEstIIJ2gpz-9" vertex="1">
          <mxGeometry x="975.01" y="660" width="120" height="30" as="geometry" />
        </mxCell>
        <mxCell id="AjcsgLgm9lEstIIJ2gpz-85" value="&lt;font style=&quot;font-size: 22px;&quot;&gt;&lt;b&gt;&lt;u&gt;Data Flow Diagram&lt;/u&gt;&lt;/b&gt;&lt;/font&gt;" style="text;html=1;align=left;verticalAlign=middle;whiteSpace=wrap;rounded=0;" parent="AjcsgLgm9lEstIIJ2gpz-9" vertex="1">
          <mxGeometry x="80" y="30" width="410" height="30" as="geometry" />
        </mxCell>
        <mxCell id="n_QtePz_tt7xBOgF3Okw-1" style="edgeStyle=orthogonalEdgeStyle;rounded=0;orthogonalLoop=1;jettySize=auto;html=1;exitX=0.5;exitY=1;exitDx=0;exitDy=0;entryX=0.5;entryY=0.667;entryDx=0;entryDy=0;entryPerimeter=0;" edge="1" parent="AjcsgLgm9lEstIIJ2gpz-9" source="AjcsgLgm9lEstIIJ2gpz-85" target="AjcsgLgm9lEstIIJ2gpz-85">
          <mxGeometry relative="1" as="geometry" />
        </mxCell>
        <mxCell id="AjcsgLgm9lEstIIJ2gpz-22" value="Sources" parent="0" />
        <mxCell id="AjcsgLgm9lEstIIJ2gpz-23" value="" style="image;aspect=fixed;html=1;points=[];align=center;fontSize=12;image=img/lib/azure2/general/Folder_Blank.svg;movable=1;resizable=1;rotatable=1;deletable=1;editable=1;locked=0;connectable=1;" parent="AjcsgLgm9lEstIIJ2gpz-22" vertex="1">
          <mxGeometry x="140" y="324.12" width="79" height="64.12" as="geometry" />
        </mxCell>
        <mxCell id="AjcsgLgm9lEstIIJ2gpz-31" value="&lt;b&gt;&lt;font style=&quot;font-size: 14px;&quot;&gt;CRM&lt;/font&gt;&lt;/b&gt;" style="text;html=1;align=center;verticalAlign=middle;whiteSpace=wrap;rounded=0;movable=1;resizable=1;rotatable=1;deletable=1;editable=1;locked=0;connectable=1;" parent="AjcsgLgm9lEstIIJ2gpz-22" vertex="1">
          <mxGeometry x="149.5" y="402.12" width="60" height="30" as="geometry" />
        </mxCell>
        <mxCell id="AjcsgLgm9lEstIIJ2gpz-32" value="&lt;b&gt;&lt;font style=&quot;font-size: 14px;&quot;&gt;ERP&lt;/font&gt;&lt;/b&gt;" style="text;html=1;align=center;verticalAlign=middle;whiteSpace=wrap;rounded=0;movable=1;resizable=1;rotatable=1;deletable=1;editable=1;locked=0;connectable=1;" parent="AjcsgLgm9lEstIIJ2gpz-22" vertex="1">
          <mxGeometry x="149.5" y="614.12" width="60" height="25.88" as="geometry" />
        </mxCell>
        <mxCell id="AjcsgLgm9lEstIIJ2gpz-39" value="Layer" style="" parent="0" />
        <mxCell id="n_QtePz_tt7xBOgF3Okw-6" value="crm_sales_details" style="rounded=1;whiteSpace=wrap;html=1;fillColor=#ffe6cc;strokeColor=#FFCC99;" vertex="1" parent="AjcsgLgm9lEstIIJ2gpz-39">
          <mxGeometry x="340" y="290" width="120" height="40" as="geometry" />
        </mxCell>
        <mxCell id="n_QtePz_tt7xBOgF3Okw-7" value="crm_cst_info" style="rounded=1;whiteSpace=wrap;html=1;fillColor=#ffe6cc;strokeColor=#FFCC99;" vertex="1" parent="AjcsgLgm9lEstIIJ2gpz-39">
          <mxGeometry x="340" y="340" width="120" height="40" as="geometry" />
        </mxCell>
        <mxCell id="n_QtePz_tt7xBOgF3Okw-8" value="crm_prd_info" style="rounded=1;whiteSpace=wrap;html=1;fillColor=#ffe6cc;strokeColor=#FFCC99;" vertex="1" parent="AjcsgLgm9lEstIIJ2gpz-39">
          <mxGeometry x="340" y="390" width="120" height="40" as="geometry" />
        </mxCell>
        <mxCell id="n_QtePz_tt7xBOgF3Okw-9" value="erp_cst_az102" style="rounded=1;whiteSpace=wrap;html=1;fillColor=#ffe6cc;strokeColor=#FFCC99;" vertex="1" parent="AjcsgLgm9lEstIIJ2gpz-39">
          <mxGeometry x="340" y="500" width="120" height="40" as="geometry" />
        </mxCell>
        <mxCell id="n_QtePz_tt7xBOgF3Okw-10" value="erp_loc_a101" style="rounded=1;whiteSpace=wrap;html=1;fillColor=#ffe6cc;strokeColor=#FFCC99;" vertex="1" parent="AjcsgLgm9lEstIIJ2gpz-39">
          <mxGeometry x="340" y="550" width="120" height="40" as="geometry" />
        </mxCell>
        <mxCell id="n_QtePz_tt7xBOgF3Okw-11" value="erp_px_cat_g1v2" style="rounded=1;whiteSpace=wrap;html=1;fillColor=#ffe6cc;strokeColor=#FFCC99;" vertex="1" parent="AjcsgLgm9lEstIIJ2gpz-39">
          <mxGeometry x="340" y="600" width="120" height="40" as="geometry" />
        </mxCell>
        <mxCell id="n_QtePz_tt7xBOgF3Okw-12" value="" style="endArrow=classic;html=1;rounded=0;" edge="1" parent="AjcsgLgm9lEstIIJ2gpz-39">
          <mxGeometry width="50" height="50" relative="1" as="geometry">
            <mxPoint x="220" y="359.5" as="sourcePoint" />
            <mxPoint x="340" y="360" as="targetPoint" />
          </mxGeometry>
        </mxCell>
        <mxCell id="n_QtePz_tt7xBOgF3Okw-13" value="" style="endArrow=classic;html=1;rounded=0;" edge="1" parent="AjcsgLgm9lEstIIJ2gpz-39">
          <mxGeometry width="50" height="50" relative="1" as="geometry">
            <mxPoint x="270" y="310" as="sourcePoint" />
            <mxPoint x="340" y="310" as="targetPoint" />
          </mxGeometry>
        </mxCell>
        <mxCell id="n_QtePz_tt7xBOgF3Okw-14" value="" style="endArrow=classic;html=1;rounded=0;" edge="1" parent="AjcsgLgm9lEstIIJ2gpz-39">
          <mxGeometry width="50" height="50" relative="1" as="geometry">
            <mxPoint x="270" y="409.5" as="sourcePoint" />
            <mxPoint x="340" y="409.5" as="targetPoint" />
          </mxGeometry>
        </mxCell>
        <mxCell id="n_QtePz_tt7xBOgF3Okw-15" value="" style="endArrow=none;html=1;rounded=0;" edge="1" parent="AjcsgLgm9lEstIIJ2gpz-39">
          <mxGeometry width="50" height="50" relative="1" as="geometry">
            <mxPoint x="270" y="410" as="sourcePoint" />
            <mxPoint x="270" y="310" as="targetPoint" />
          </mxGeometry>
        </mxCell>
        <mxCell id="n_QtePz_tt7xBOgF3Okw-16" value="" style="endArrow=classic;html=1;rounded=0;" edge="1" parent="AjcsgLgm9lEstIIJ2gpz-39">
          <mxGeometry width="50" height="50" relative="1" as="geometry">
            <mxPoint x="220" y="569.5" as="sourcePoint" />
            <mxPoint x="340" y="570" as="targetPoint" />
          </mxGeometry>
        </mxCell>
        <mxCell id="n_QtePz_tt7xBOgF3Okw-17" value="" style="endArrow=classic;html=1;rounded=0;" edge="1" parent="AjcsgLgm9lEstIIJ2gpz-39">
          <mxGeometry width="50" height="50" relative="1" as="geometry">
            <mxPoint x="270" y="520" as="sourcePoint" />
            <mxPoint x="340" y="520" as="targetPoint" />
          </mxGeometry>
        </mxCell>
        <mxCell id="n_QtePz_tt7xBOgF3Okw-18" value="" style="endArrow=classic;html=1;rounded=0;" edge="1" parent="AjcsgLgm9lEstIIJ2gpz-39">
          <mxGeometry width="50" height="50" relative="1" as="geometry">
            <mxPoint x="270" y="619.5" as="sourcePoint" />
            <mxPoint x="340" y="619.5" as="targetPoint" />
          </mxGeometry>
        </mxCell>
        <mxCell id="n_QtePz_tt7xBOgF3Okw-19" value="" style="endArrow=none;html=1;rounded=0;" edge="1" parent="AjcsgLgm9lEstIIJ2gpz-39">
          <mxGeometry width="50" height="50" relative="1" as="geometry">
            <mxPoint x="270" y="620" as="sourcePoint" />
            <mxPoint x="270" y="520" as="targetPoint" />
          </mxGeometry>
        </mxCell>
        <mxCell id="n_QtePz_tt7xBOgF3Okw-20" value="" style="image;aspect=fixed;html=1;points=[];align=center;fontSize=12;image=img/lib/azure2/general/Folder_Blank.svg;movable=1;resizable=1;rotatable=1;deletable=1;editable=1;locked=0;connectable=1;" vertex="1" parent="AjcsgLgm9lEstIIJ2gpz-39">
          <mxGeometry x="140" y="534.12" width="79" height="64.12" as="geometry" />
        </mxCell>
        <mxCell id="n_QtePz_tt7xBOgF3Okw-22" value="crm_sales_details" style="rounded=1;whiteSpace=wrap;html=1;fillColor=#f5f5f5;strokeColor=#E6E6E6;fontColor=#333333;" vertex="1" parent="AjcsgLgm9lEstIIJ2gpz-39">
          <mxGeometry x="540" y="290" width="120" height="40" as="geometry" />
        </mxCell>
        <mxCell id="n_QtePz_tt7xBOgF3Okw-23" value="crm_cst_info" style="rounded=1;whiteSpace=wrap;html=1;fillColor=#f5f5f5;strokeColor=#E6E6E6;fontColor=#333333;" vertex="1" parent="AjcsgLgm9lEstIIJ2gpz-39">
          <mxGeometry x="540" y="340" width="120" height="40" as="geometry" />
        </mxCell>
        <mxCell id="n_QtePz_tt7xBOgF3Okw-24" value="crm_prd_info" style="rounded=1;whiteSpace=wrap;html=1;fillColor=#f5f5f5;strokeColor=#E6E6E6;fontColor=#333333;" vertex="1" parent="AjcsgLgm9lEstIIJ2gpz-39">
          <mxGeometry x="540" y="390" width="120" height="40" as="geometry" />
        </mxCell>
        <mxCell id="n_QtePz_tt7xBOgF3Okw-25" value="erp_cst_az102" style="rounded=1;whiteSpace=wrap;html=1;fillColor=#f5f5f5;strokeColor=#E6E6E6;fontColor=#333333;" vertex="1" parent="AjcsgLgm9lEstIIJ2gpz-39">
          <mxGeometry x="540" y="500" width="120" height="40" as="geometry" />
        </mxCell>
        <mxCell id="n_QtePz_tt7xBOgF3Okw-26" value="erp_loc_a101" style="rounded=1;whiteSpace=wrap;html=1;fillColor=#f5f5f5;strokeColor=#E6E6E6;fontColor=#333333;" vertex="1" parent="AjcsgLgm9lEstIIJ2gpz-39">
          <mxGeometry x="540" y="550" width="120" height="40" as="geometry" />
        </mxCell>
        <mxCell id="n_QtePz_tt7xBOgF3Okw-27" value="erp_px_cat_g1v2" style="rounded=1;whiteSpace=wrap;html=1;fillColor=#f5f5f5;strokeColor=#E6E6E6;fontColor=#333333;" vertex="1" parent="AjcsgLgm9lEstIIJ2gpz-39">
          <mxGeometry x="540" y="600" width="120" height="40" as="geometry" />
        </mxCell>
        <mxCell id="n_QtePz_tt7xBOgF3Okw-28" value="fact_sales" style="rounded=1;whiteSpace=wrap;html=1;fillColor=#fff2cc;strokeColor=#FFF2CC;" vertex="1" parent="AjcsgLgm9lEstIIJ2gpz-39">
          <mxGeometry x="740" y="290" width="120" height="40" as="geometry" />
        </mxCell>
        <mxCell id="n_QtePz_tt7xBOgF3Okw-29" value="dim_customers" style="rounded=1;whiteSpace=wrap;html=1;fillColor=#fff2cc;strokeColor=#FFF2CC;" vertex="1" parent="AjcsgLgm9lEstIIJ2gpz-39">
          <mxGeometry x="740" y="450" width="120" height="40" as="geometry" />
        </mxCell>
        <mxCell id="n_QtePz_tt7xBOgF3Okw-30" value="dim_products" style="rounded=1;whiteSpace=wrap;html=1;fillColor=#fff2cc;strokeColor=#FFF2CC;" vertex="1" parent="AjcsgLgm9lEstIIJ2gpz-39">
          <mxGeometry x="740" y="550" width="120" height="40" as="geometry" />
        </mxCell>
        <mxCell id="n_QtePz_tt7xBOgF3Okw-34" value="" style="endArrow=classic;html=1;rounded=0;entryX=0;entryY=0.5;entryDx=0;entryDy=0;" edge="1" parent="AjcsgLgm9lEstIIJ2gpz-39" target="n_QtePz_tt7xBOgF3Okw-22">
          <mxGeometry width="50" height="50" relative="1" as="geometry">
            <mxPoint x="460" y="309.5" as="sourcePoint" />
            <mxPoint x="530" y="309.5" as="targetPoint" />
          </mxGeometry>
        </mxCell>
        <mxCell id="n_QtePz_tt7xBOgF3Okw-35" value="" style="endArrow=classic;html=1;rounded=0;entryX=0;entryY=0.5;entryDx=0;entryDy=0;" edge="1" parent="AjcsgLgm9lEstIIJ2gpz-39">
          <mxGeometry width="50" height="50" relative="1" as="geometry">
            <mxPoint x="460" y="359.5" as="sourcePoint" />
            <mxPoint x="540" y="360" as="targetPoint" />
          </mxGeometry>
        </mxCell>
        <mxCell id="n_QtePz_tt7xBOgF3Okw-36" value="" style="endArrow=classic;html=1;rounded=0;entryX=0;entryY=0.5;entryDx=0;entryDy=0;" edge="1" parent="AjcsgLgm9lEstIIJ2gpz-39">
          <mxGeometry width="50" height="50" relative="1" as="geometry">
            <mxPoint x="460" y="409.5" as="sourcePoint" />
            <mxPoint x="540" y="410" as="targetPoint" />
          </mxGeometry>
        </mxCell>
        <mxCell id="n_QtePz_tt7xBOgF3Okw-37" value="" style="endArrow=classic;html=1;rounded=0;entryX=0;entryY=0.5;entryDx=0;entryDy=0;" edge="1" parent="AjcsgLgm9lEstIIJ2gpz-39">
          <mxGeometry width="50" height="50" relative="1" as="geometry">
            <mxPoint x="460" y="519.5" as="sourcePoint" />
            <mxPoint x="540" y="520" as="targetPoint" />
          </mxGeometry>
        </mxCell>
        <mxCell id="n_QtePz_tt7xBOgF3Okw-38" value="" style="endArrow=classic;html=1;rounded=0;entryX=0;entryY=0.5;entryDx=0;entryDy=0;" edge="1" parent="AjcsgLgm9lEstIIJ2gpz-39">
          <mxGeometry width="50" height="50" relative="1" as="geometry">
            <mxPoint x="460" y="569.5" as="sourcePoint" />
            <mxPoint x="540" y="570" as="targetPoint" />
          </mxGeometry>
        </mxCell>
        <mxCell id="n_QtePz_tt7xBOgF3Okw-39" value="" style="endArrow=classic;html=1;rounded=0;entryX=0;entryY=0.5;entryDx=0;entryDy=0;" edge="1" parent="AjcsgLgm9lEstIIJ2gpz-39">
          <mxGeometry width="50" height="50" relative="1" as="geometry">
            <mxPoint x="460" y="619.5" as="sourcePoint" />
            <mxPoint x="540" y="620" as="targetPoint" />
          </mxGeometry>
        </mxCell>
        <mxCell id="n_QtePz_tt7xBOgF3Okw-40" value="" style="endArrow=classic;html=1;rounded=0;" edge="1" parent="AjcsgLgm9lEstIIJ2gpz-39">
          <mxGeometry width="50" height="50" relative="1" as="geometry">
            <mxPoint x="660" y="309.5" as="sourcePoint" />
            <mxPoint x="740" y="310" as="targetPoint" />
          </mxGeometry>
        </mxCell>
        <mxCell id="n_QtePz_tt7xBOgF3Okw-46" value="" style="endArrow=classic;html=1;rounded=0;" edge="1" parent="AjcsgLgm9lEstIIJ2gpz-39">
          <mxGeometry width="50" height="50" relative="1" as="geometry">
            <mxPoint x="660" y="360" as="sourcePoint" />
            <mxPoint x="740" y="470" as="targetPoint" />
          </mxGeometry>
        </mxCell>
        <mxCell id="n_QtePz_tt7xBOgF3Okw-47" value="" style="endArrow=classic;html=1;rounded=0;entryX=0;entryY=0.5;entryDx=0;entryDy=0;" edge="1" parent="AjcsgLgm9lEstIIJ2gpz-39" target="n_QtePz_tt7xBOgF3Okw-30">
          <mxGeometry width="50" height="50" relative="1" as="geometry">
            <mxPoint x="660" y="410" as="sourcePoint" />
            <mxPoint x="740" y="500" as="targetPoint" />
          </mxGeometry>
        </mxCell>
        <mxCell id="n_QtePz_tt7xBOgF3Okw-48" value="" style="endArrow=classic;html=1;rounded=0;" edge="1" parent="AjcsgLgm9lEstIIJ2gpz-39">
          <mxGeometry width="50" height="50" relative="1" as="geometry">
            <mxPoint x="660" y="520" as="sourcePoint" />
            <mxPoint x="740" y="470" as="targetPoint" />
          </mxGeometry>
        </mxCell>
        <mxCell id="n_QtePz_tt7xBOgF3Okw-49" value="" style="endArrow=classic;html=1;rounded=0;" edge="1" parent="AjcsgLgm9lEstIIJ2gpz-39">
          <mxGeometry width="50" height="50" relative="1" as="geometry">
            <mxPoint x="660" y="570" as="sourcePoint" />
            <mxPoint x="740" y="480" as="targetPoint" />
          </mxGeometry>
        </mxCell>
        <mxCell id="n_QtePz_tt7xBOgF3Okw-50" value="" style="endArrow=classic;html=1;rounded=0;" edge="1" parent="AjcsgLgm9lEstIIJ2gpz-39">
          <mxGeometry width="50" height="50" relative="1" as="geometry">
            <mxPoint x="660" y="630" as="sourcePoint" />
            <mxPoint x="740" y="570" as="targetPoint" />
          </mxGeometry>
        </mxCell>
        <mxCell id="n_QtePz_tt7xBOgF3Okw-51" value="Enterprise&amp;nbsp;&lt;div&gt;Resource Planing&lt;/div&gt;" style="text;html=1;align=center;verticalAlign=middle;whiteSpace=wrap;rounded=0;" vertex="1" parent="AjcsgLgm9lEstIIJ2gpz-39">
          <mxGeometry x="99.5" y="640" width="160" height="30" as="geometry" />
        </mxCell>
        <mxCell id="n_QtePz_tt7xBOgF3Okw-52" value="Customer&amp;nbsp;&lt;div&gt;Relationship management&lt;/div&gt;" style="text;html=1;align=center;verticalAlign=middle;whiteSpace=wrap;rounded=0;" vertex="1" parent="AjcsgLgm9lEstIIJ2gpz-39">
          <mxGeometry x="79.75" y="430" width="199.5" height="30" as="geometry" />
        </mxCell>
      </root>
    </mxGraphModel>
  </diagram>
</mxfile>
